<?xml version="1.0" standalone="no"?>
<!DOCTYPE svg PUBLIC "-//W3C//DTD SVG 20010904//EN"
 "http://www.w3.org/TR/2001/REC-SVG-20010904/DTD/svg10.dtd">
<svg version="1.0" xmlns="http://www.w3.org/2000/svg"
 width="246.000000pt" height="246.000000pt" viewBox="0 0 246.000000 246.000000"
 preserveAspectRatio="xMidYMid meet">
<metadata>
Created by potrace 1.14, written by Peter Selinger 2001-2017
</metadata>
<g transform="translate(0.000000,246.000000) scale(0.100000,-0.100000)"
fill="#000000" stroke="none">
<path d="M591 2439 c-39 -17 -73 -20 -260 -25 -211 -6 -237 -10 -228 -39 2 -6
50 -11 108 -13 82 -2 107 -6 116 -19 11 -14 16 -14 42 -2 42 21 161 9 226 -22
62 -29 142 -107 150 -146 3 -15 9 -40 14 -55 5 -14 5 -46 0 -70 -10 -50 -12
-376 -3 -430 5 -27 12 -38 24 -38 10 0 20 6 23 14 3 7 7 83 8 167 1 85 6 174
11 197 4 24 10 82 12 128 4 88 13 112 65 167 58 64 144 87 324 87 120 1 222
16 229 34 6 17 -54 26 -222 35 -91 5 -176 13 -190 19 -56 23 -107 33 -145 30
l-40 -3 36 -23 c58 -35 56 -56 -6 -100 -29 -20 -62 -50 -73 -66 l-20 -28 -16
30 c-19 36 -84 92 -108 92 -34 0 -27 19 22 55 27 20 50 39 50 41 0 13 -111 1
-149 -17z"/>
<path d="M0 1928 l0 -57 37 -7 c29 -5 39 -3 49 11 8 10 13 19 11 19 -1 1 -24
21 -50 46 l-47 44 0 -56z"/>
<path d="M474 1891 c-23 -14 -37 -34 -49 -72 -12 -36 -34 -69 -71 -108 -65
-66 -70 -101 -26 -158 l27 -37 -3 -275 c-4 -246 -2 -287 17 -382 11 -58 25
-118 31 -133 5 -15 10 -39 10 -53 0 -14 11 -40 24 -57 13 -17 35 -53 50 -81
14 -27 36 -62 47 -77 16 -19 23 -45 26 -95 5 -63 -10 -271 -24 -335 -5 -26 -3
-28 31 -28 36 0 36 0 36 43 1 161 104 548 165 617 15 17 62 144 77 207 12 52
29 59 67 27 23 -19 51 -27 138 -40 200 -28 387 -18 476 26 21 10 43 17 50 14
14 -5 39 -64 63 -148 9 -33 29 -80 44 -105 16 -25 35 -73 44 -106 8 -33 31
-112 51 -175 19 -63 35 -126 35 -140 0 -14 7 -59 16 -100 9 -41 18 -85 20 -97
4 -23 7 -23 142 -23 l137 0 55 41 c62 47 108 101 117 139 3 14 12 33 21 42 18
21 12 129 -9 171 -46 86 -149 178 -239 212 -25 9 -63 29 -85 45 -22 16 -67 43
-100 60 -90 47 -77 23 -130 243 -12 49 -13 83 -6 164 14 162 -4 251 -83 400
-13 26 -133 116 -196 148 -97 48 -202 58 -341 31 -131 -25 -203 -72 -330 -218
-46 -54 -69 -135 -69 -249 0 -67 30 -180 56 -210 8 -8 14 -37 14 -64 0 -43 -2
-46 -17 -34 -43 36 -118 267 -150 467 l-16 93 28 69 c30 75 29 109 -7 138 -51
41 -58 53 -58 92 0 47 -16 89 -44 112 -26 22 -25 22 -62 -1z m812 -657 c25 -6
48 -36 37 -48 -3 -3 -36 -6 -72 -6 -54 0 -68 3 -78 19 -9 15 -9 22 0 29 14 12
57 21 75 16 8 -2 25 -7 38 -10z m-42 -124 c55 0 56 0 39 -20 -10 -11 -30 -20
-46 -20 -30 0 -87 25 -99 44 -15 22 -7 26 22 11 16 -8 54 -15 84 -15z m771
-906 c0 -22 -5 -30 -22 -32 -20 -3 -23 1 -23 26 0 29 13 43 35 38 6 -2 10 -16
10 -32z"/>
</g>
</svg>
